<?xml version="1.0" encoding="UTF-8"?>
<!DOCTYPE svg PUBLIC "-//W3C//DTD SVG 1.1//EN" "http://www.w3.org/Graphics/SVG/1.1/DTD/svg11.dtd">
<svg xmlns="http://www.w3.org/2000/svg" version="1.1" width="712px" height="104px" style="shape-rendering:geometricPrecision; text-rendering:geometricPrecision; image-rendering:optimizeQuality; fill-rule:evenodd; clip-rule:evenodd" xmlns:xlink="http://www.w3.org/1999/xlink">
<g><path style="opacity:1" fill="#90bc7b" d="M 1.5,68.5 C 6.7725,64.3662 12.7725,61.5328 19.5,60C 36.4299,55.8733 53.4299,55.54 70.5,59C 86.1413,62.4616 101.808,65.7949 117.5,69C 135.008,71.8524 151.675,69.3524 167.5,61.5C 157.555,53.9134 157.222,46.0801 166.5,38C 171.344,35.2042 176.344,34.8709 181.5,37C 186.232,42.0351 186.732,47.5351 183,53.5C 181.5,56.3333 179.333,58.5 176.5,60C 179.818,61.2901 183.318,62.1234 187,62.5C 194.517,61.8321 202.017,60.9987 209.5,60C 224.246,56.6468 238.913,52.9801 253.5,49C 269.434,44.9391 285.434,44.6058 301.5,48C 308.46,50.179 314.793,53.3457 320.5,57.5C 341.667,52.1812 362.834,52.1812 384,57.5C 387.958,56.2356 391.458,54.069 394.5,51C 413.236,44.4018 432.236,43.7351 451.5,49C 472.45,55.4049 493.784,59.9049 515.5,62.5C 519.829,61.9634 524.162,61.4634 528.5,61C 523.72,56.7293 520.387,51.5627 518.5,45.5C 519.76,38.909 523.76,35.5757 530.5,35.5C 540.954,37.1124 545.454,43.1124 544,53.5C 541.872,56.6301 539.372,59.4634 536.5,62C 552.13,69.3285 568.463,71.6619 585.5,69C 599.528,66.1277 613.528,63.1277 627.5,60C 653.757,53.7258 679.09,56.2258 703.5,67.5C 704.521,68.0016 704.688,68.6683 704,69.5C 682.585,60.6546 660.418,58.1546 637.5,62C 622.237,65.6492 606.903,68.9825 591.5,72C 570.359,75.9481 550.192,73.1148 531,63.5C 522.934,65.4204 514.767,65.9204 506.5,65C 486.435,60.984 466.435,56.6506 446.5,52C 438.337,51.0956 430.17,50.2623 422,49.5C 417.931,50.0237 413.931,50.6904 410,51.5C 403.364,51.6105 397.364,53.9439 392,58.5C 391.833,58.8333 391.667,59.1667 391.5,59.5C 395.741,61.2018 399.574,63.5352 403,66.5C 403.944,69.3471 403.444,71.8471 401.5,74C 391.054,76.1251 385.388,71.9584 384.5,61.5C 363.124,56.025 341.791,56.1917 320.5,62C 318.97,71.8641 313.303,75.8641 303.5,74C 300.648,71.8474 300.148,69.3474 302,66.5C 305.577,63.6267 309.411,61.1267 313.5,59C 310.498,56.497 307.165,54.497 303.5,53C 286.662,49.112 269.662,49.112 252.5,53C 236.569,56.9828 220.569,60.6495 204.5,64C 194.3,66.0521 184.133,65.8855 174,63.5C 156.765,71.8676 138.598,75.0343 119.5,73C 103.756,70.0512 88.0894,66.7178 72.5,63C 48.3096,58.3771 24.6429,60.2104 1.5,68.5 Z M 171.5,39.5 C 182.191,38.691 185.024,43.0243 180,52.5C 172.654,61.1195 167.154,60.1195 163.5,49.5C 164.354,44.6525 167.021,41.3192 171.5,39.5 Z M 525.5,39.5 C 533.794,38.3047 539.127,41.638 541.5,49.5C 537.471,60.6424 531.971,61.6424 525,52.5C 521.529,47.8454 521.696,43.512 525.5,39.5 Z M 313.5,63.5 C 314.376,63.3691 315.043,63.7025 315.5,64.5C 313.914,69.1509 310.914,71.1509 306.5,70.5C 305.167,69.5 305.167,68.5 306.5,67.5C 308.765,65.8726 311.099,64.5392 313.5,63.5 Z M 389.5,63.5 C 393.472,64.4841 396.806,66.4841 399.5,69.5C 393.696,72.1988 390.363,70.1988 389.5,63.5 Z"/></g>
<g><path style="opacity:1" fill="#d9e9d3" d="M 1.5,68.5 C 0.833333,69.1667 0.833333,69.1667 1.5,68.5 Z"/></g>
</svg>
