<?xml version="1.0" encoding="UTF-8"?>
<!DOCTYPE svg PUBLIC "-//W3C//DTD SVG 1.1//EN" "http://www.w3.org/Graphics/SVG/1.1/DTD/svg11.dtd">
<svg xmlns="http://www.w3.org/2000/svg" version="1.1" width="911px" height="816px" style="shape-rendering:geometricPrecision; text-rendering:geometricPrecision; image-rendering:optimizeQuality; fill-rule:evenodd; clip-rule:evenodd" xmlns:xlink="http://www.w3.org/1999/xlink">
<g><path style="opacity:0.998" fill="#c9e2b6" d="M 733.5,222.5 C 652.393,306.128 566.893,384.461 477,457.5C 480.161,442.349 482.828,427.016 485,411.5C 485.713,398.142 485.38,384.809 484,371.5C 481.709,355.624 478.376,339.957 474,324.5C 466.083,298.845 458.916,273.011 452.5,247C 473.637,225.891 484.137,200.391 484,170.5C 482.921,160.864 480.921,151.531 478,142.5C 494.523,165.596 500.523,191.263 496,219.5C 493.981,229.595 491.981,239.595 490,249.5C 503.574,231.864 511.408,212.03 513.5,190C 513.433,171.2 506.1,155.866 491.5,144C 487.5,141.333 483.5,138.667 479.5,136C 523.961,141.148 554.128,164.648 570,206.5C 574.387,219.49 577.054,232.823 578,246.5C 585.665,221.46 585.331,196.46 577,171.5C 567.907,151.023 552.407,138.19 530.5,133C 515.569,130.496 500.569,129.829 485.5,131C 504.275,118.63 524.941,111.63 547.5,110C 561.864,109.177 576.197,109.511 590.5,111C 605.759,113.252 620.759,116.252 635.5,120C 611.486,107.106 586.152,97.7728 559.5,92C 533.921,87.2729 511.254,93.1063 491.5,109.5C 491.167,109 490.833,108.5 490.5,108C 501.508,75.1944 494.175,47.361 468.5,24.5C 479.068,47.2241 483.235,71.5575 481,97.5C 480.17,107.641 478.504,117.641 476,127.5C 470.814,75.2962 442.314,52.4628 390.5,59C 427.929,67.4186 453.762,89.2519 468,124.5C 439.092,98.1864 406.926,93.3531 371.5,110C 361.996,115.495 353.663,122.495 346.5,131C 382.557,112.178 419.557,110.511 457.5,126C 407.994,118.494 378.827,139.327 370,188.5C 389.485,160.692 415.985,143.859 449.5,138C 419.072,151.966 404.405,175.8 405.5,209.5C 405.287,217.342 406.287,225.009 408.5,232.5C 416.084,208.996 427.584,187.662 443,168.5C 434.951,189.34 432.284,211.007 435,233.5C 438.387,258.823 443.387,283.823 450,308.5C 455.398,331.218 457.398,354.218 456,377.5C 452.369,401.728 444.369,424.395 432,445.5C 408.064,483.114 378.73,516.114 344,544.5C 346.225,527.149 348.891,509.816 352,492.5C 357.407,450.666 356.407,409 349,367.5C 345.178,349.7 339.178,332.7 331,316.5C 323.966,305.768 317.966,294.435 313,282.5C 298.973,259.56 278.806,245.06 252.5,239C 287.292,238.485 316.125,251.318 339,277.5C 342.575,281.653 345.909,285.986 349,290.5C 343.527,269.865 332.694,252.365 316.5,238C 294.765,222.663 272.265,221.496 249,234.5C 248.833,234.167 248.667,233.833 248.5,233.5C 277.822,200.56 314.155,188.727 357.5,198C 364.637,199.934 371.637,202.268 378.5,205C 384.856,208.349 391.19,211.349 397.5,214C 384.546,200.371 369.88,189.038 353.5,180C 326.899,166.595 301.899,168.928 278.5,187C 266.353,198.47 256.52,211.636 249,226.5C 248.074,202.873 253.74,180.873 266,160.5C 280.888,136.272 299.388,115.105 321.5,97C 294.386,109.743 270.886,127.576 251,150.5C 237.297,168.268 231.297,188.268 233,210.5C 213.666,183.916 187.832,173.583 155.5,179.5C 210.62,78.5605 295.62,21.3939 410.5,8C 527.86,2.60534 621.36,46.772 691,140.5C 697.251,149.999 703.251,159.666 709,169.5C 717.763,187.018 725.929,204.684 733.5,222.5 Z"/></g>
<g><path style="opacity:0.998" fill="#89af6f" d="M 733.5,222.5 C 753.939,201.893 774.272,181.06 794.5,160C 795.167,159.333 795.833,159.333 796.5,160C 703.434,274.093 603.434,382.426 496.5,485C 456.923,521.924 415.589,556.59 372.5,589C 343.974,609.82 313.64,627.82 281.5,643C 256.034,654.911 229.367,659.244 201.5,656C 182.876,652.043 168.71,641.876 159,625.5C 145.12,599.984 137.787,572.65 137,543.5C 136.333,521.833 136.333,500.167 137,478.5C 139.284,503.685 146.951,527.018 160,548.5C 172.368,565.187 188.701,575.854 209,580.5C 213.178,578.993 217.011,576.826 220.5,574C 226.003,569.663 231.003,564.83 235.5,559.5C 283.204,510.019 312.371,451.019 323,382.5C 326.353,355.956 322.353,330.622 311,306.5C 293.873,283.039 273.706,262.539 250.5,245C 249.552,244.517 248.552,244.351 247.5,244.5C 252.019,282.356 266.019,316.19 289.5,346C 265.613,338.435 248.113,323.268 237,300.5C 232.199,286.41 231.199,272.076 234,257.5C 223.29,282.992 220.624,309.326 226,336.5C 227.401,343.106 229.567,349.439 232.5,355.5C 218.101,343.47 208.601,327.803 204,308.5C 201.845,285.638 209.179,266.305 226,250.5C 226.667,249.833 226.667,249.167 226,248.5C 192.457,271.239 174.124,302.905 171,343.5C 160.044,297.683 175.211,263.849 216.5,242C 221.738,239.865 227.071,238.032 232.5,236.5C 195.558,229.649 163.392,238.982 136,264.5C 148.964,231.754 173.131,216.921 208.5,220C 218.928,221.975 228.594,225.808 237.5,231.5C 237.833,231.167 238.167,230.833 238.5,230.5C 217.91,206.534 192.244,190.7 161.5,183C 159.19,182.503 156.857,182.337 154.5,182.5C 154.557,181.391 154.89,180.391 155.5,179.5C 187.832,173.583 213.666,183.916 233,210.5C 231.297,188.268 237.297,168.268 251,150.5C 270.886,127.576 294.386,109.743 321.5,97C 299.388,115.105 280.888,136.272 266,160.5C 253.74,180.873 248.074,202.873 249,226.5C 256.52,211.636 266.353,198.47 278.5,187C 301.899,168.928 326.899,166.595 353.5,180C 369.88,189.038 384.546,200.371 397.5,214C 391.19,211.349 384.856,208.349 378.5,205C 371.637,202.268 364.637,199.934 357.5,198C 314.155,188.727 277.822,200.56 248.5,233.5C 248.667,233.833 248.833,234.167 249,234.5C 272.265,221.496 294.765,222.663 316.5,238C 332.694,252.365 343.527,269.865 349,290.5C 345.909,285.986 342.575,281.653 339,277.5C 316.125,251.318 287.292,238.485 252.5,239C 278.806,245.06 298.973,259.56 313,282.5C 317.966,294.435 323.966,305.768 331,316.5C 339.178,332.7 345.178,349.7 349,367.5C 356.407,409 357.407,450.666 352,492.5C 348.891,509.816 346.225,527.149 344,544.5C 378.73,516.114 408.064,483.114 432,445.5C 444.369,424.395 452.369,401.728 456,377.5C 457.398,354.218 455.398,331.218 450,308.5C 443.387,283.823 438.387,258.823 435,233.5C 432.284,211.007 434.951,189.34 443,168.5C 427.584,187.662 416.084,208.996 408.5,232.5C 406.287,225.009 405.287,217.342 405.5,209.5C 404.405,175.8 419.072,151.966 449.5,138C 415.985,143.859 389.485,160.692 370,188.5C 378.827,139.327 407.994,118.494 457.5,126C 419.557,110.511 382.557,112.178 346.5,131C 353.663,122.495 361.996,115.495 371.5,110C 406.926,93.3531 439.092,98.1864 468,124.5C 453.762,89.2519 427.929,67.4186 390.5,59C 442.314,52.4628 470.814,75.2962 476,127.5C 478.504,117.641 480.17,107.641 481,97.5C 483.235,71.5575 479.068,47.2241 468.5,24.5C 494.175,47.361 501.508,75.1944 490.5,108C 490.833,108.5 491.167,109 491.5,109.5C 511.254,93.1063 533.921,87.2729 559.5,92C 586.152,97.7728 611.486,107.106 635.5,120C 620.759,116.252 605.759,113.252 590.5,111C 576.197,109.511 561.864,109.177 547.5,110C 524.941,111.63 504.275,118.63 485.5,131C 500.569,129.829 515.569,130.496 530.5,133C 552.407,138.19 567.907,151.023 577,171.5C 585.331,196.46 585.665,221.46 578,246.5C 577.054,232.823 574.387,219.49 570,206.5C 554.128,164.648 523.961,141.148 479.5,136C 483.5,138.667 487.5,141.333 491.5,144C 506.1,155.866 513.433,171.2 513.5,190C 511.408,212.03 503.574,231.864 490,249.5C 491.981,239.595 493.981,229.595 496,219.5C 500.523,191.263 494.523,165.596 478,142.5C 480.921,151.531 482.921,160.864 484,170.5C 484.137,200.391 473.637,225.891 452.5,247C 458.916,273.011 466.083,298.845 474,324.5C 478.376,339.957 481.709,355.624 484,371.5C 485.38,384.809 485.713,398.142 485,411.5C 482.828,427.016 480.161,442.349 477,457.5C 566.893,384.461 652.393,306.128 733.5,222.5 Z"/></g>
<g><path style="opacity:0.979" fill="#cae3b6" d="M 889.5,40.5 C 895.537,40.1707 901.537,40.5041 907.5,41.5C 907,42.5 906.5,43.5 906,44.5C 877.657,76.3416 849.157,108.008 820.5,139.5C 820.167,138.5 819.833,137.5 819.5,136.5C 820.515,129.843 821.015,123.176 821,116.5C 804.138,133.696 786.972,150.529 769.5,167C 768.167,167.667 766.833,167.667 765.5,167C 764.167,164.333 762.833,161.667 761.5,159C 753.805,158.643 746.138,157.976 738.5,157C 735.424,156.089 733.091,154.256 731.5,151.5C 732.376,150.749 733.376,150.249 734.5,150C 746.255,148.319 757.921,146.319 769.5,144C 781.683,131.317 793.683,118.484 805.5,105.5C 790.212,103.915 774.879,102.748 759.5,102C 755.166,101.171 752.166,98.6709 750.5,94.5C 775.054,88.0209 799.721,81.8542 824.5,76C 835.167,68 845.833,60 856.5,52C 866.893,46.0375 877.893,42.2042 889.5,40.5 Z"/></g>
<g><path style="opacity:1" fill="#c7e1b4" d="M 469.5,142.5 C 469.933,156.101 468.766,169.768 466,183.5C 463.262,201.887 458.262,219.553 451,236.5C 446.553,214.105 447.886,192.105 455,170.5C 459.604,160.956 464.437,151.623 469.5,142.5 Z"/></g>
<g><path style="opacity:0.998" fill="#c9e2b6" d="M 154.5,182.5 C 156.857,182.337 159.19,182.503 161.5,183C 192.244,190.7 217.91,206.534 238.5,230.5C 238.167,230.833 237.833,231.167 237.5,231.5C 228.594,225.808 218.928,221.975 208.5,220C 173.131,216.921 148.964,231.754 136,264.5C 163.392,238.982 195.558,229.649 232.5,236.5C 227.071,238.032 221.738,239.865 216.5,242C 175.211,263.849 160.044,297.683 171,343.5C 174.124,302.905 192.457,271.239 226,248.5C 226.667,249.167 226.667,249.833 226,250.5C 209.179,266.305 201.845,285.638 204,308.5C 208.601,327.803 218.101,343.47 232.5,355.5C 229.567,349.439 227.401,343.106 226,336.5C 220.624,309.326 223.29,282.992 234,257.5C 231.199,272.076 232.199,286.41 237,300.5C 248.113,323.268 265.613,338.435 289.5,346C 266.019,316.19 252.019,282.356 247.5,244.5C 248.552,244.351 249.552,244.517 250.5,245C 273.706,262.539 293.873,283.039 311,306.5C 322.353,330.622 326.353,355.956 323,382.5C 312.371,451.019 283.204,510.019 235.5,559.5C 221.505,544.67 207.671,529.67 194,514.5C 127.519,428.425 108.853,332.759 138,227.5C 143.017,212.28 148.517,197.28 154.5,182.5 Z"/></g>
<g><path style="opacity:0.994" fill="#cae3b6" d="M 741.5,275.5 C 754.229,366.559 731.395,447.893 673,519.5C 605.503,595.577 520.67,632.077 418.5,629C 409.484,628.541 400.484,627.874 391.5,627C 387.344,626.815 383.344,625.982 379.5,624.5C 439.9,579.293 497.234,530.127 551.5,477C 616.868,411.474 680.201,344.307 741.5,275.5 Z"/></g>
<g><path style="opacity:1" fill="#8aaf70" d="M 283.5,731.5 C 306.5,731.5 329.5,731.5 352.5,731.5C 352.5,736.833 352.5,742.167 352.5,747.5C 344.5,747.5 336.5,747.5 328.5,747.5C 328.5,769.167 328.5,790.833 328.5,812.5C 321.5,812.5 314.5,812.5 307.5,812.5C 307.5,790.833 307.5,769.167 307.5,747.5C 299.5,747.5 291.5,747.5 283.5,747.5C 283.5,742.167 283.5,736.833 283.5,731.5 Z"/></g>
<g><path style="opacity:0.993" fill="#89af6f" d="M 367.5,731.5 C 382.192,731.28 396.859,731.78 411.5,733C 424.983,734.152 433.15,741.319 436,754.5C 437.403,762.348 436.07,769.681 432,776.5C 428.651,779.682 425.484,783.015 422.5,786.5C 428.116,794.559 432.949,802.893 437,811.5C 430.582,812.643 424.082,812.81 417.5,812C 412.538,805.249 408.205,798.082 404.5,790.5C 399.147,789.789 393.814,789.122 388.5,788.5C 387.502,796.472 387.169,804.472 387.5,812.5C 380.833,812.5 374.167,812.5 367.5,812.5C 367.5,785.5 367.5,758.5 367.5,731.5 Z M 387.5,747.5 C 395.228,747.189 402.895,747.689 410.5,749C 415.488,751.133 417.822,754.966 417.5,760.5C 417.316,765.711 414.983,769.544 410.5,772C 402.887,773.262 395.22,773.762 387.5,773.5C 387.5,764.833 387.5,756.167 387.5,747.5 Z"/></g>
<g><path style="opacity:0.992" fill="#89af70" d="M 482.5,731.5 C 488.509,731.334 494.509,731.501 500.5,732C 501.938,732.219 503.271,732.719 504.5,733.5C 515.97,759.098 526.303,785.098 535.5,811.5C 528.8,811.83 522.134,811.497 515.5,810.5C 513.731,806.356 512.064,802.19 510.5,798C 498.5,797.333 486.5,797.333 474.5,798C 472.694,802.418 470.694,806.751 468.5,811C 462.285,812.416 455.952,812.916 449.5,812.5C 450.487,807.704 451.987,803.037 454,798.5C 463.512,776.145 473.012,753.812 482.5,731.5 Z M 491.5,753.5 C 492.75,753.577 493.583,754.244 494,755.5C 497.265,763.794 500.432,772.128 503.5,780.5C 496.167,783.167 488.833,783.167 481.5,780.5C 485.132,771.577 488.465,762.577 491.5,753.5 Z"/></g>
<g><path style="opacity:0.985" fill="#89af6f" d="M 609.5,731.5 C 614.833,731.5 620.167,731.5 625.5,731.5C 616.768,757.855 606.935,783.855 596,809.5C 595.5,810 595,810.5 594.5,811C 587.586,811.811 580.752,811.645 574,810.5C 563.833,784.833 553.667,759.167 543.5,733.5C 549.807,732.336 556.141,732.169 562.5,733C 563.308,733.308 563.975,733.808 564.5,734.5C 571.509,752.534 578.509,770.534 585.5,788.5C 591.952,771.982 598.118,755.316 604,738.5C 604.967,735.379 606.8,733.046 609.5,731.5 Z"/></g>
<g><path style="opacity:1" fill="#8ab071" d="M 640.5,731.5 C 661.833,731.5 683.167,731.5 704.5,731.5C 704.5,736.833 704.5,742.167 704.5,747.5C 690.167,747.5 675.833,747.5 661.5,747.5C 661.5,752.833 661.5,758.167 661.5,763.5C 674.167,763.5 686.833,763.5 699.5,763.5C 699.5,769.167 699.5,774.833 699.5,780.5C 686.833,780.5 674.167,780.5 661.5,780.5C 661.5,785.833 661.5,791.167 661.5,796.5C 676.167,796.5 690.833,796.5 705.5,796.5C 705.5,801.833 705.5,807.167 705.5,812.5C 683.833,812.5 662.167,812.5 640.5,812.5C 640.5,785.5 640.5,758.5 640.5,731.5 Z"/></g>
<g><path style="opacity:1" fill="#89af6f" d="M 724.5,731.5 C 731.167,731.5 737.833,731.5 744.5,731.5C 744.5,752.833 744.5,774.167 744.5,795.5C 756.167,795.5 767.833,795.5 779.5,795.5C 779.5,801.167 779.5,806.833 779.5,812.5C 761.167,812.5 742.833,812.5 724.5,812.5C 724.5,785.5 724.5,758.5 724.5,731.5 Z"/></g>
<g><path style="opacity:0.992" fill="#8aaf70" d="M 201.5,731.5 C 218.199,731.947 234.866,732.78 251.5,734C 266.968,740.434 272.802,751.934 269,768.5C 266.3,775.406 262.467,781.572 257.5,787C 261.575,794.482 265.908,801.815 270.5,809C 265.092,811.281 259.426,811.948 253.5,811C 251.714,810.215 250.214,809.049 249,807.5C 245.706,801.747 242.54,795.913 239.5,790C 233.843,789.501 228.176,789.334 222.5,789.5C 222.5,797.167 222.5,804.833 222.5,812.5C 215.5,812.5 208.5,812.5 201.5,812.5C 201.5,785.5 201.5,758.5 201.5,731.5 Z M 222.5,747.5 C 230.637,747.152 238.637,747.986 246.5,750C 251.607,754.998 252.773,760.832 250,767.5C 248.457,769.378 246.624,770.878 244.5,772C 237.214,773.186 229.881,773.686 222.5,773.5C 222.5,764.833 222.5,756.167 222.5,747.5 Z"/></g>
</svg>
