<?xml version="1.0" encoding="UTF-8"?>
<!DOCTYPE svg PUBLIC "-//W3C//DTD SVG 1.1//EN" "http://www.w3.org/Graphics/SVG/1.1/DTD/svg11.dtd">
<svg xmlns="http://www.w3.org/2000/svg" version="1.1" width="911px" height="664px" style="shape-rendering:geometricPrecision; text-rendering:geometricPrecision; image-rendering:optimizeQuality; fill-rule:evenodd; clip-rule:evenodd" xmlns:xlink="http://www.w3.org/1999/xlink">
<g><path style="opacity:0.998" fill="#c9e2b6" d="M 733.5,222.5 C 652.393,306.128 566.893,384.461 477,457.5C 480.161,442.349 482.828,427.016 485,411.5C 485.713,398.142 485.38,384.809 484,371.5C 481.709,355.624 478.376,339.957 474,324.5C 466.083,298.845 458.916,273.011 452.5,247C 473.637,225.891 484.137,200.391 484,170.5C 482.921,160.864 480.921,151.531 478,142.5C 494.523,165.596 500.523,191.263 496,219.5C 493.981,229.595 491.981,239.595 490,249.5C 503.574,231.864 511.408,212.03 513.5,190C 513.433,171.2 506.1,155.866 491.5,144C 487.5,141.333 483.5,138.667 479.5,136C 523.961,141.148 554.128,164.648 570,206.5C 574.387,219.49 577.054,232.823 578,246.5C 585.665,221.46 585.331,196.46 577,171.5C 567.907,151.023 552.407,138.19 530.5,133C 515.569,130.496 500.569,129.829 485.5,131C 504.275,118.63 524.941,111.63 547.5,110C 561.864,109.177 576.197,109.511 590.5,111C 605.759,113.252 620.759,116.252 635.5,120C 611.486,107.106 586.152,97.7728 559.5,92C 533.921,87.2729 511.254,93.1063 491.5,109.5C 491.167,109 490.833,108.5 490.5,108C 501.508,75.1944 494.175,47.361 468.5,24.5C 479.068,47.2241 483.235,71.5575 481,97.5C 480.17,107.641 478.504,117.641 476,127.5C 470.814,75.2962 442.314,52.4628 390.5,59C 427.929,67.4186 453.762,89.2519 468,124.5C 439.092,98.1864 406.926,93.3531 371.5,110C 361.996,115.495 353.663,122.495 346.5,131C 382.557,112.178 419.557,110.511 457.5,126C 407.994,118.494 378.827,139.327 370,188.5C 389.485,160.692 415.985,143.859 449.5,138C 419.072,151.966 404.405,175.8 405.5,209.5C 405.287,217.342 406.287,225.009 408.5,232.5C 416.084,208.996 427.584,187.662 443,168.5C 434.951,189.34 432.284,211.007 435,233.5C 438.387,258.823 443.387,283.823 450,308.5C 455.398,331.218 457.398,354.218 456,377.5C 452.369,401.728 444.369,424.395 432,445.5C 408.064,483.114 378.73,516.114 344,544.5C 346.225,527.149 348.891,509.816 352,492.5C 357.407,450.666 356.407,409 349,367.5C 345.178,349.7 339.178,332.7 331,316.5C 323.966,305.768 317.966,294.435 313,282.5C 298.973,259.56 278.806,245.06 252.5,239C 287.292,238.485 316.125,251.318 339,277.5C 342.575,281.653 345.909,285.986 349,290.5C 343.527,269.865 332.694,252.365 316.5,238C 294.765,222.663 272.265,221.496 249,234.5C 248.833,234.167 248.667,233.833 248.5,233.5C 277.822,200.56 314.155,188.727 357.5,198C 364.637,199.934 371.637,202.268 378.5,205C 384.856,208.349 391.19,211.349 397.5,214C 384.546,200.371 369.88,189.038 353.5,180C 326.899,166.595 301.899,168.928 278.5,187C 266.353,198.47 256.52,211.636 249,226.5C 248.074,202.873 253.74,180.873 266,160.5C 280.888,136.272 299.388,115.105 321.5,97C 294.386,109.743 270.886,127.576 251,150.5C 237.297,168.268 231.297,188.268 233,210.5C 213.666,183.916 187.832,173.583 155.5,179.5C 210.62,78.5605 295.62,21.3939 410.5,8C 527.86,2.60534 621.36,46.772 691,140.5C 697.251,149.999 703.251,159.666 709,169.5C 717.763,187.018 725.929,204.684 733.5,222.5 Z"/></g>
<g><path style="opacity:0.998" fill="#89af6f" d="M 733.5,222.5 C 753.939,201.893 774.272,181.06 794.5,160C 795.167,159.333 795.833,159.333 796.5,160C 703.434,274.093 603.434,382.426 496.5,485C 456.923,521.924 415.589,556.59 372.5,589C 343.974,609.82 313.64,627.82 281.5,643C 256.034,654.911 229.367,659.244 201.5,656C 182.876,652.043 168.71,641.876 159,625.5C 145.12,599.984 137.787,572.65 137,543.5C 136.333,521.833 136.333,500.167 137,478.5C 139.284,503.685 146.951,527.018 160,548.5C 172.368,565.187 188.701,575.854 209,580.5C 213.178,578.993 217.011,576.826 220.5,574C 226.003,569.663 231.003,564.83 235.5,559.5C 283.204,510.019 312.371,451.019 323,382.5C 326.353,355.956 322.353,330.622 311,306.5C 293.873,283.039 273.706,262.539 250.5,245C 249.552,244.517 248.552,244.351 247.5,244.5C 252.019,282.356 266.019,316.19 289.5,346C 265.613,338.435 248.113,323.268 237,300.5C 232.199,286.41 231.199,272.076 234,257.5C 223.29,282.992 220.624,309.326 226,336.5C 227.401,343.106 229.567,349.439 232.5,355.5C 218.101,343.47 208.601,327.803 204,308.5C 201.845,285.638 209.179,266.305 226,250.5C 226.667,249.833 226.667,249.167 226,248.5C 192.457,271.239 174.124,302.905 171,343.5C 160.044,297.683 175.211,263.849 216.5,242C 221.738,239.865 227.071,238.032 232.5,236.5C 195.558,229.649 163.392,238.982 136,264.5C 148.964,231.754 173.131,216.921 208.5,220C 218.928,221.975 228.594,225.808 237.5,231.5C 237.833,231.167 238.167,230.833 238.5,230.5C 217.91,206.534 192.244,190.7 161.5,183C 159.19,182.503 156.857,182.337 154.5,182.5C 154.557,181.391 154.89,180.391 155.5,179.5C 187.832,173.583 213.666,183.916 233,210.5C 231.297,188.268 237.297,168.268 251,150.5C 270.886,127.576 294.386,109.743 321.5,97C 299.388,115.105 280.888,136.272 266,160.5C 253.74,180.873 248.074,202.873 249,226.5C 256.52,211.636 266.353,198.47 278.5,187C 301.899,168.928 326.899,166.595 353.5,180C 369.88,189.038 384.546,200.371 397.5,214C 391.19,211.349 384.856,208.349 378.5,205C 371.637,202.268 364.637,199.934 357.5,198C 314.155,188.727 277.822,200.56 248.5,233.5C 248.667,233.833 248.833,234.167 249,234.5C 272.265,221.496 294.765,222.663 316.5,238C 332.694,252.365 343.527,269.865 349,290.5C 345.909,285.986 342.575,281.653 339,277.5C 316.125,251.318 287.292,238.485 252.5,239C 278.806,245.06 298.973,259.56 313,282.5C 317.966,294.435 323.966,305.768 331,316.5C 339.178,332.7 345.178,349.7 349,367.5C 356.407,409 357.407,450.666 352,492.5C 348.891,509.816 346.225,527.149 344,544.5C 378.73,516.114 408.064,483.114 432,445.5C 444.369,424.395 452.369,401.728 456,377.5C 457.398,354.218 455.398,331.218 450,308.5C 443.387,283.823 438.387,258.823 435,233.5C 432.284,211.007 434.951,189.34 443,168.5C 427.584,187.662 416.084,208.996 408.5,232.5C 406.287,225.009 405.287,217.342 405.5,209.5C 404.405,175.8 419.072,151.966 449.5,138C 415.985,143.859 389.485,160.692 370,188.5C 378.827,139.327 407.994,118.494 457.5,126C 419.557,110.511 382.557,112.178 346.5,131C 353.663,122.495 361.996,115.495 371.5,110C 406.926,93.3531 439.092,98.1864 468,124.5C 453.762,89.2519 427.929,67.4186 390.5,59C 442.314,52.4628 470.814,75.2962 476,127.5C 478.504,117.641 480.17,107.641 481,97.5C 483.235,71.5575 479.068,47.2241 468.5,24.5C 494.175,47.361 501.508,75.1944 490.5,108C 490.833,108.5 491.167,109 491.5,109.5C 511.254,93.1063 533.921,87.2729 559.5,92C 586.152,97.7728 611.486,107.106 635.5,120C 620.759,116.252 605.759,113.252 590.5,111C 576.197,109.511 561.864,109.177 547.5,110C 524.941,111.63 504.275,118.63 485.5,131C 500.569,129.829 515.569,130.496 530.5,133C 552.407,138.19 567.907,151.023 577,171.5C 585.331,196.46 585.665,221.46 578,246.5C 577.054,232.823 574.387,219.49 570,206.5C 554.128,164.648 523.961,141.148 479.5,136C 483.5,138.667 487.5,141.333 491.5,144C 506.1,155.866 513.433,171.2 513.5,190C 511.408,212.03 503.574,231.864 490,249.5C 491.981,239.595 493.981,229.595 496,219.5C 500.523,191.263 494.523,165.596 478,142.5C 480.921,151.531 482.921,160.864 484,170.5C 484.137,200.391 473.637,225.891 452.5,247C 458.916,273.011 466.083,298.845 474,324.5C 478.376,339.957 481.709,355.624 484,371.5C 485.38,384.809 485.713,398.142 485,411.5C 482.828,427.016 480.161,442.349 477,457.5C 566.893,384.461 652.393,306.128 733.5,222.5 Z"/></g>
<g><path style="opacity:0.979" fill="#cae3b6" d="M 889.5,40.5 C 895.537,40.1707 901.537,40.5041 907.5,41.5C 907,42.5 906.5,43.5 906,44.5C 877.657,76.3416 849.157,108.008 820.5,139.5C 820.167,138.5 819.833,137.5 819.5,136.5C 820.515,129.843 821.015,123.176 821,116.5C 804.138,133.696 786.972,150.529 769.5,167C 768.167,167.667 766.833,167.667 765.5,167C 764.167,164.333 762.833,161.667 761.5,159C 753.805,158.643 746.138,157.976 738.5,157C 735.424,156.089 733.091,154.256 731.5,151.5C 732.376,150.749 733.376,150.249 734.5,150C 746.255,148.319 757.921,146.319 769.5,144C 781.683,131.317 793.683,118.484 805.5,105.5C 790.212,103.915 774.879,102.748 759.5,102C 755.166,101.171 752.166,98.6709 750.5,94.5C 775.054,88.0209 799.721,81.8542 824.5,76C 835.167,68 845.833,60 856.5,52C 866.893,46.0375 877.893,42.2042 889.5,40.5 Z"/></g>
<g><path style="opacity:1" fill="#c7e1b4" d="M 469.5,142.5 C 469.933,156.101 468.766,169.768 466,183.5C 463.262,201.887 458.262,219.553 451,236.5C 446.553,214.105 447.886,192.105 455,170.5C 459.604,160.956 464.437,151.623 469.5,142.5 Z"/></g>
<g><path style="opacity:0.998" fill="#c9e2b6" d="M 154.5,182.5 C 156.857,182.337 159.19,182.503 161.5,183C 192.244,190.7 217.91,206.534 238.5,230.5C 238.167,230.833 237.833,231.167 237.5,231.5C 228.594,225.808 218.928,221.975 208.5,220C 173.131,216.921 148.964,231.754 136,264.5C 163.392,238.982 195.558,229.649 232.5,236.5C 227.071,238.032 221.738,239.865 216.5,242C 175.211,263.849 160.044,297.683 171,343.5C 174.124,302.905 192.457,271.239 226,248.5C 226.667,249.167 226.667,249.833 226,250.5C 209.179,266.305 201.845,285.638 204,308.5C 208.601,327.803 218.101,343.47 232.5,355.5C 229.567,349.439 227.401,343.106 226,336.5C 220.624,309.326 223.29,282.992 234,257.5C 231.199,272.076 232.199,286.41 237,300.5C 248.113,323.268 265.613,338.435 289.5,346C 266.019,316.19 252.019,282.356 247.5,244.5C 248.552,244.351 249.552,244.517 250.5,245C 273.706,262.539 293.873,283.039 311,306.5C 322.353,330.622 326.353,355.956 323,382.5C 312.371,451.019 283.204,510.019 235.5,559.5C 221.505,544.67 207.671,529.67 194,514.5C 127.519,428.425 108.853,332.759 138,227.5C 143.017,212.28 148.517,197.28 154.5,182.5 Z"/></g>
<g><path style="opacity:0.994" fill="#cae3b6" d="M 741.5,275.5 C 754.229,366.559 731.395,447.893 673,519.5C 605.503,595.577 520.67,632.077 418.5,629C 409.484,628.541 400.484,627.874 391.5,627C 387.344,626.815 383.344,625.982 379.5,624.5C 439.9,579.293 497.234,530.127 551.5,477C 616.868,411.474 680.201,344.307 741.5,275.5 Z"/></g>
</svg>
