<?xml version="1.0" encoding="UTF-8"?>
<!DOCTYPE svg PUBLIC "-//W3C//DTD SVG 1.1//EN" "http://www.w3.org/Graphics/SVG/1.1/DTD/svg11.dtd">
<svg xmlns="http://www.w3.org/2000/svg" version="1.1" width="1148px" height="930px" style="shape-rendering:geometricPrecision; text-rendering:geometricPrecision; image-rendering:optimizeQuality; fill-rule:evenodd; clip-rule:evenodd" xmlns:xlink="http://www.w3.org/1999/xlink">
<g><path style="opacity:0.999" fill="#cae3b7" d="M 1038.5,300.5 C 1037.16,298.887 1035.5,298.387 1033.5,299C 983.435,327.698 933.102,355.864 882.5,383.5C 882.667,328.166 882.5,272.832 882,217.5C 881.31,214.804 879.81,212.637 877.5,211C 679.875,209.338 482.209,209.005 284.5,210C 283,211.5 281.5,213 280,214.5C 279.5,273.832 279.333,333.166 279.5,392.5C 226.553,361.393 173.72,330.06 121,298.5C 120.768,299.737 120.268,300.737 119.5,301.5C 119.178,299.278 119.845,297.444 121.5,296C 241.678,221.068 363.344,148.401 486.5,78C 505.767,67.5334 525.433,57.8667 545.5,49C 561.713,44.2906 578.213,41.1239 595,39.5C 600.963,39.4259 606.796,40.2592 612.5,42C 626.995,49.7465 641.328,57.7465 655.5,66C 783.166,142.831 910.5,220.164 1037.5,298C 1038.25,298.671 1038.59,299.504 1038.5,300.5 Z"/></g>
<g><path style="opacity:1" fill="#fefefe" d="M 882.5,383.5 C 847.697,403.405 812.697,423.071 777.5,442.5C 777.5,440.167 777.5,437.833 777.5,435.5C 646.167,435.5 514.833,435.5 383.5,435.5C 383.5,440.167 383.5,444.833 383.5,449.5C 509.5,450.167 635.5,450.833 761.5,451.5C 695.527,488.488 629.527,525.488 563.5,562.5C 468.77,505.807 374.103,449.141 279.5,392.5C 279.333,333.166 279.5,273.832 280,214.5C 281.5,213 283,211.5 284.5,210C 482.209,209.005 679.875,209.338 877.5,211C 879.81,212.637 881.31,214.804 882,217.5C 882.5,272.832 882.667,328.166 882.5,383.5 Z"/></g>
<g><path style="opacity:1" fill="#89af6f" d="M 279.5,392.5 C 374.103,449.141 468.77,505.807 563.5,562.5C 629.527,525.488 695.527,488.488 761.5,451.5C 762.167,451.167 762.833,450.833 763.5,450.5C 768.167,447.833 772.833,445.167 777.5,442.5C 812.697,423.071 847.697,403.405 882.5,383.5C 933.102,355.864 983.435,327.698 1033.5,299C 1035.5,298.387 1037.16,298.887 1038.5,300.5C 1038.43,302.027 1039.09,303.027 1040.5,303.5C 1041.54,304.93 1042.2,306.597 1042.5,308.5C 1042.72,312.162 1043.72,315.495 1045.5,318.5C 1049.5,332.806 1052.33,347.473 1054,362.5C 1061.75,433.305 1064.58,504.305 1062.5,575.5C 1061.35,594.991 1060.68,614.658 1060.5,634.5C 1059.44,683.402 1053.77,731.735 1043.5,779.5C 1041.93,781.102 1041.26,783.102 1041.5,785.5C 1041.77,787.099 1041.43,788.432 1040.5,789.5C 1039.08,791.515 1038.41,793.848 1038.5,796.5C 1035.68,810.835 1029.01,823.002 1018.5,833C 1015.09,835.372 1011.42,837.205 1007.5,838.5C 1005.45,838.402 1003.78,839.069 1002.5,840.5C 979.484,848.207 955.818,853.707 931.5,857C 891.018,862.847 850.351,866.68 809.5,868.5C 797.968,868.369 786.634,869.036 775.5,870.5C 614.667,878.008 454,875.174 293.5,862C 274.754,860.306 256.088,858.139 237.5,855.5C 233.79,853.864 229.79,853.198 225.5,853.5C 207.101,851.658 189.101,848.325 171.5,843.5C 169.485,842.076 167.152,841.41 164.5,841.5C 161.495,839.723 158.162,838.723 154.5,838.5C 136.35,835.015 125.016,824.348 120.5,806.5C 120.598,804.447 119.931,802.78 118.5,801.5C 117.766,800.292 117.433,798.959 117.5,797.5C 117.59,794.848 116.924,792.515 115.5,790.5C 109.806,766.624 106.472,742.291 105.5,717.5C 105.186,702.994 104.519,688.661 103.5,674.5C 101.423,549.726 106.756,425.393 119.5,301.5C 120.268,300.737 120.768,299.737 121,298.5C 173.72,330.06 226.553,361.393 279.5,392.5 Z"/></g>
<g><path style="opacity:0.224" fill="#dde8d4" d="M 1038.5,300.5 C 1039.91,300.973 1040.57,301.973 1040.5,303.5C 1039.09,303.027 1038.43,302.027 1038.5,300.5 Z"/></g>
<g><path style="opacity:0.965" fill="#c6d8b9" d="M 1042.5,308.5 C 1044.28,311.505 1045.28,314.838 1045.5,318.5C 1043.72,315.495 1042.72,312.162 1042.5,308.5 Z"/></g>
<g><path style="opacity:1" fill="#cbe3b9" d="M 383.5,322.5 C 514.833,322.5 646.167,322.5 777.5,322.5C 777.5,327.5 777.5,332.5 777.5,337.5C 646.167,337.5 514.833,337.5 383.5,337.5C 383.5,332.5 383.5,327.5 383.5,322.5 Z"/></g>
<g><path style="opacity:1" fill="#cbe3b9" d="M 383.5,378.5 C 514.833,378.5 646.167,378.5 777.5,378.5C 777.5,383.5 777.5,388.5 777.5,393.5C 646.167,393.5 514.833,393.5 383.5,393.5C 383.5,388.5 383.5,383.5 383.5,378.5 Z"/></g>
<g><path style="opacity:1" fill="#cae2b7" d="M 777.5,442.5 C 772.833,445.167 768.167,447.833 763.5,450.5C 637.001,449.5 510.334,449.167 383.5,449.5C 383.5,444.833 383.5,440.167 383.5,435.5C 514.833,435.5 646.167,435.5 777.5,435.5C 777.5,437.833 777.5,440.167 777.5,442.5 Z"/></g>
<g><path style="opacity:1" fill="#f1f7ed" d="M 383.5,449.5 C 510.334,449.167 637.001,449.5 763.5,450.5C 762.833,450.833 762.167,451.167 761.5,451.5C 635.5,450.833 509.5,450.167 383.5,449.5 Z"/></g>
<g><path style="opacity:0.251" fill="#c8d9bb" d="M 1062.5,575.5 C 1062.71,595.354 1062.04,615.021 1060.5,634.5C 1060.68,614.658 1061.35,594.991 1062.5,575.5 Z"/></g>
<g><path style="opacity:0.188" fill="#d9e5d1" d="M 103.5,674.5 C 104.519,688.661 105.186,702.994 105.5,717.5C 103.827,703.369 103.16,689.036 103.5,674.5 Z"/></g>
<g><path style="opacity:0.553" fill="#d2dfc9" d="M 1043.5,779.5 C 1043.41,781.786 1042.74,783.786 1041.5,785.5C 1041.26,783.102 1041.93,781.102 1043.5,779.5 Z"/></g>
<g><path style="opacity:0.22" fill="#dee9d7" d="M 115.5,790.5 C 116.924,792.515 117.59,794.848 117.5,797.5C 116.076,795.485 115.41,793.152 115.5,790.5 Z"/></g>
<g><path style="opacity:0.004" fill="#e3eedd" d="M 1040.5,789.5 C 1040.59,792.152 1039.92,794.485 1038.5,796.5C 1038.41,793.848 1039.08,791.515 1040.5,789.5 Z"/></g>
<g><path style="opacity:0.376" fill="#d7e3cf" d="M 118.5,801.5 C 119.931,802.78 120.598,804.447 120.5,806.5C 119.069,805.22 118.402,803.553 118.5,801.5 Z"/></g>
<g><path style="opacity:1" fill="#c4d6b6" d="M 154.5,838.5 C 158.162,838.723 161.495,839.723 164.5,841.5C 160.838,841.277 157.505,840.277 154.5,838.5 Z"/></g>
<g><path style="opacity:0.122" fill="#e3eedf" d="M 1007.5,838.5 C 1006.22,839.931 1004.55,840.598 1002.5,840.5C 1003.78,839.069 1005.45,838.402 1007.5,838.5 Z"/></g>
<g><path style="opacity:0.624" fill="#c2d6b6" d="M 164.5,841.5 C 167.152,841.41 169.485,842.076 171.5,843.5C 168.848,843.59 166.515,842.924 164.5,841.5 Z"/></g>
<g><path style="opacity:1" fill="#bed3b0" d="M 225.5,853.5 C 229.79,853.198 233.79,853.864 237.5,855.5C 233.295,855.283 229.295,854.617 225.5,853.5 Z"/></g>
<g><path style="opacity:0.033" fill="#e2ebdc" d="M 809.5,868.5 C 798.354,869.749 787.02,870.416 775.5,870.5C 786.634,869.036 797.968,868.369 809.5,868.5 Z"/></g>
</svg>
